Coordinates
datacolumns 11
datarows 88
range 0 0.87
inDegrees=yes
Units are S.I. units (second, meters, Newtons, ...)
If the header above contains a line with 'inDegrees', this indicates whether rotational values are in degrees (yes) or radians (no).
endheader
time	pelvis_tilt	pelvis_tx	pelvis_ty	hip_flexion_l	hip_flexion_r	knee_angle_l	knee_angle_r	ankle_angle_l	ankle_angle_r	lumbar
0	17.2089114	-0.04089507	0.72637665	57.28410458	57.28410458	-80.65621954	-80.65621954	5.961182	5.961182	-40.89933343
0.01	17.06059589	-0.04048489	0.72646624	57.39192747	57.39192747	-80.6325235	-80.6325235	5.96394374	5.96394374	-41.19314841
0.02	16.897379	-0.04005726	0.72655343	57.5117281	57.5117281	-80.60275498	-80.60275498	5.96907028	5.96907028	-41.4889696
0.03	16.71698545	-0.03958585	0.7266256	57.64555207	57.64555207	-80.56873078	-80.56873078	5.97640957	5.97640957	-41.78231441
0.04	16.20727458	-0.03892318	0.72591881	58.18472962	58.18472962	-80.57630424	-80.57630424	5.98817688	5.98817688	-41.68479248
0.05	16.03607437	-0.03841736	0.72604797	58.30596795	58.30596795	-80.55036257	-80.55036257	5.9957953	5.9957953	-42.0255153
0.06	15.84746965	-0.0378669	0.72618037	58.43803582	58.43803582	-80.51582642	-80.51582642	6.00603172	6.00603172	-42.36478743
0.07	15.6394201	-0.03726081	0.72631009	58.58359449	58.58359449	-80.47488406	-80.47488406	6.01927063	6.01927063	-42.69912501
0.08	15.41439847	-0.03660794	0.72643732	58.74238483	58.74238483	-80.43160008	-80.43160008	6.03527883	6.03527883	-43.03148085
0.09	14.7888916	-0.03573165	0.72560798	59.3920722	59.3920722	-80.43975553	-80.43975553	6.12865357	6.12865357	-42.88527333
0.1	14.58333225	-0.03502015	0.72581166	59.52723245	59.52723245	-80.40992061	-80.40992061	6.1383314	6.1383314	-43.27780826
0.11	14.35758232	-0.03427069	0.72601395	59.67477916	59.67477916	-80.36820731	-80.36820731	6.15150098	6.15150098	-43.66742431
0.12	14.10478626	-0.03346621	0.72619559	59.84174107	59.84174107	-80.31532826	-80.31532826	6.16949829	6.16949829	-44.04389043
0.13	13.41100868	-0.0324684	0.72531682	60.54758495	60.54758495	-80.30889736	-80.30889736	6.27880713	6.27880713	-43.89780181
0.14	13.17388058	-0.03161116	0.72554462	60.70061815	60.70061815	-80.27542489	-80.27542489	6.28984283	6.28984283	-44.33128072
0.15	12.90137532	-0.0306987	0.72575556	60.87653303	60.87653303	-80.22158861	-80.22158861	6.30652817	6.30652817	-44.74340636
0.16	12.14851575	-0.0295943	0.72482738	61.63469783	61.63469783	-80.20734353	-80.20734353	6.40016059	6.40016059	-44.5867222
0.17	11.88816052	-0.02857754	0.72510395	61.79484922	61.79484922	-80.17034736	-80.17034736	6.41214571	6.41214571	-45.04538501
0.18	11.23635585	-0.02741532	0.72453796	62.39969776	62.39969776	-80.12054309	-80.12054309	6.49378414	6.49378414	-45.05257616
0.19	10.96311046	-0.02626512	0.72485516	62.56137194	62.56137194	-80.08428185	-80.08428185	6.50656548	6.50656548	-45.52482766
0.2	10.28616637	-0.0249804	0.72431395	63.17646565	63.17646565	-80.02588397	-80.02588397	6.60850393	6.60850393	-45.53236331
0.21	9.99247335	-0.02370132	0.72466399	63.34243597	63.34243597	-79.98522071	-79.98522071	6.62279343	6.62279343	-46.0142491
0.22	9.26605307	-0.0223067	0.72406979	64.00176209	64.00176209	-79.92147318	-79.92147318	6.73742156	6.73742156	-45.98947517
0.23	8.71797432	-0.02088958	0.72390786	64.44876812	64.44876812	-79.86675359	-79.86675359	6.79827961	6.79827961	-46.19336726
0.24	8.4005111	-0.01942818	0.72430054	64.62204848	64.62204848	-79.82254906	-79.82254906	6.81337391	6.81337391	-46.6910616
0.25	7.54066114	-0.01786132	0.7234937	65.41489945	65.41489945	-79.75406175	-79.75406175	6.92384598	6.92384598	-46.5459425
0.26	6.90270215	-0.01626752	0.72323708	65.94271248	65.94271248	-79.69060818	-79.69060818	6.97965916	6.97965916	-46.68357164
0.27	6.23996488	-0.0146106	0.72296687	66.49167335	66.49167335	-79.62645553	-79.62645553	7.03697629	7.03697629	-46.80266555
0.28	5.55985478	-0.01287554	0.72270768	67.0522594	67.0522594	-79.56083567	-79.56083567	7.09084219	7.09084219	-46.91260719
0.29	4.84673949	-0.01107249	0.72242132	67.6473005	67.6473005	-79.49616975	-79.49616975	7.15270682	7.15270682	-46.99692177
0.3	4.17712321	-0.00916203	0.72235288	68.15972091	68.15972091	-79.40863856	-79.40863856	7.2131997	7.2131997	-47.13927099
0.31	3.48256107	-0.00718168	0.72227611	68.69774513	68.69774513	-79.32166477	-79.32166477	7.27555847	7.27555847	-47.26670793
0.32	2.78362321	-0.00511746	0.72225395	69.22828628	69.22828628	-79.22898629	-79.22898629	7.34522302	7.34522302	-47.39947707
0.33	2.07286947	-0.00298411	0.72227144	69.75953732	69.75953732	-79.12813381	-79.12813381	7.41549516	7.41549516	-47.53042676
0.34	1.34293374	-0.00077802	0.7223074	70.29950336	70.29950336	-79.01884495	-79.01884495	7.48619103	7.48619103	-47.64843551
0.35	0.59123817	0.00149177	0.72233885	70.85656462	70.85656462	-78.90692707	-78.90692707	7.56088101	7.56088101	-47.75132292
0.36	-0.18953321	0.00382432	0.72235553	71.43605126	71.43605126	-78.79142656	-78.79142656	7.63814125	7.63814125	-47.82930163
0.37	-0.99972511	0.00621703	0.72236275	72.03633357	72.03633357	-78.66948481	-78.66948481	7.71947518	7.71947518	-47.88091499
0.38	-1.83930645	0.00865659	0.72236695	72.65890742	72.65890742	-78.54166479	-78.54166479	7.80842976	7.80842976	-47.90865864
0.39	-2.69361313	0.01117221	0.72239744	73.28110191	73.28110191	-78.403719	-78.403719	7.90084596	7.90084596	-47.92293786
0.4	-3.57520686	0.01372328	0.72244646	73.92167963	73.92167963	-78.25418809	-78.25418809	7.99720996	7.99720996	-47.91214127
0.41	-4.47085676	0.01631388	0.72253987	74.5613127	74.5613127	-78.09552703	-78.09552703	8.10332115	8.10332115	-47.89228801
0.42	-5.2039963	0.01896936	0.72323443	74.96033269	74.96033269	-77.86386398	-77.86386398	8.18163284	8.18163284	-48.0908887
0.43	-6.32693536	0.02161854	0.72279122	75.86776413	75.86776413	-77.73631948	-77.73631948	8.33169851	8.33169851	-47.77155934
0.44	-7.27689227	0.02434086	0.72297545	76.52283899	76.52283899	-77.5378609	-77.5378609	8.42922969	8.42922969	-47.67693866
0.45	-8.23237127	0.02711903	0.72321163	77.16960674	77.16960674	-77.32807936	-77.32807936	8.54011835	8.54011835	-47.56388119
0.46	-9.20061239	0.0299457	0.72348998	77.81545109	77.81545109	-77.10889186	-77.10889186	8.6535677	8.6535677	-47.4172764
0.47	-9.98760684	0.03292567	0.72435979	78.21258275	78.21258275	-76.85081205	-76.85081205	8.74141498	8.74141498	-47.48379316
0.48	-11.11950003	0.03579461	0.72428969	79.04307371	79.04307371	-76.64244369	-76.64244369	8.89862366	8.89862366	-47.07268681
0.49	-12.06295037	0.03882851	0.72480341	79.61947967	79.61947967	-76.40299902	-76.40299902	9.01460546	9.01460546	-46.86831836
0.5	-12.99238256	0.04191441	0.72538471	80.1690044	80.1690044	-76.15995744	-76.15995744	9.15482508	9.15482508	-46.64185252
0.51	-13.90480991	0.04505203	0.72602473	80.69398211	80.69398211	-75.91224994	-75.91224994	9.3047922	9.3047922	-46.38424792
0.52	-14.78269458	0.04824716	0.72674966	81.17211362	81.17211362	-75.66977911	-75.66977911	9.4598036	9.4598036	-46.12458973
0.53	-15.61821646	0.05149185	0.72756048	81.60069391	81.60069391	-75.42888126	-75.42888126	9.61950647	9.61950647	-45.86292897
0.54	-16.40747707	0.05476211	0.72844314	81.98184849	81.98184849	-75.19502952	-75.19502952	9.78372524	9.78372524	-45.59405654
0.55	-17.13950116	0.05806349	0.72940777	82.30292719	82.30292719	-74.9669803	-74.9669803	9.95382076	9.95382076	-45.3282453
0.56	-17.79886395	0.06138015	0.73050266	82.54957675	82.54957675	-74.74265583	-74.74265583	10.11376345	10.11376345	-45.09212198
0.57	-18.41278744	0.06470014	0.7316405	82.74912024	82.74912024	-74.52482061	-74.52482061	10.30189055	10.30189055	-44.82081114
0.58	-18.90366941	0.06806528	0.73303982	82.81884867	82.81884867	-74.31109008	-74.31109008	10.43248091	10.43248091	-44.63423404
0.59	-19.41995556	0.07130809	0.73435676	82.92159709	82.92159709	-74.09122573	-74.09122573	10.64660123	10.64660123	-44.33973047
0.6	-19.74848996	0.07463643	0.73613627	82.80918793	82.80918793	-73.85091473	-73.85091473	10.70703616	10.70703616	-44.20263601
0.61	-20.16980262	0.07781326	0.73765677	82.81203326	82.81203326	-73.63352275	-73.63352275	11.02558075	11.02558075	-43.87176214
0.62	-20.44578566	0.0810021	0.73961777	82.63698331	82.63698331	-73.36807239	-73.36807239	11.10885457	11.10885457	-43.65821427
0.63	-20.6963797	0.08416008	0.74162708	82.43571473	82.43571473	-73.1133543	-73.1133543	11.4360645	11.4360645	-43.3958287
0.64	-20.9254403	0.08723558	0.74381805	82.1948719	82.1948719	-72.80862128	-72.80862128	11.5033759	11.5033759	-43.10940055
0.65	-21.12518969	0.0902683	0.74616941	81.91115044	81.91115044	-72.48110544	-72.48110544	11.62837165	11.62837165	-42.80431424
0.66	-21.31249025	0.09327006	0.74867361	81.5918802	81.5918802	-72.11774036	-72.11774036	11.76823999	11.76823999	-42.46612496
0.67	-21.4843643	0.09621148	0.75130607	81.25018989	81.25018989	-71.73430406	-71.73430406	11.91258141	11.91258141	-42.10323272
0.68	-21.65646865	0.09910354	0.7540834	80.88788723	80.88788723	-71.31243086	-71.31243086	12.05593635	12.05593635	-41.71101033
0.69	-21.8301713	0.1019147	0.75696571	80.51057167	80.51057167	-70.84997815	-70.84997815	12.18809177	12.18809177	-41.27668282
0.7	-22.01276846	0.10466327	0.75995168	80.12533776	80.12533776	-70.35620705	-70.35620705	12.30410944	12.30410944	-40.81259346
0.71	-22.19605646	0.10731203	0.76305626	79.72794817	79.72794817	-69.82558204	-69.82558204	12.41111773	12.41111773	-40.33004026
0.72	-22.38029369	0.10987595	0.76626084	79.31797378	79.31797378	-69.26017233	-69.26017233	12.50427116	12.50427116	-39.83204211
0.73	-22.47905928	0.11244237	0.76973295	78.79521157	78.79521157	-68.66366514	-68.66366514	12.64626773	12.64626773	-39.42625596
0.74	-22.7025379	0.11477164	0.77299898	78.41821839	78.41821839	-68.04106041	-68.04106041	12.68279357	12.68279357	-38.8606902
0.75	-22.90283394	0.11707143	0.77636544	77.99945795	77.99945795	-67.38757871	-67.38757871	12.70234357	12.70234357	-38.31040462
0.76	-23.07995264	0.11928481	0.77983501	77.55264381	77.55264381	-66.70915767	-66.70915767	12.7039367	12.7039367	-37.78128014
0.77	-23.24399923	0.1214297	0.78332945	77.09149829	77.09149829	-66.01465178	-66.01465178	12.69670909	12.69670909	-37.24467424
0.78	-23.3822064	0.12350213	0.78693624	76.59960105	76.59960105	-65.30557861	-65.30557861	12.66468333	12.66468333	-36.75600354
0.79	-23.48630433	0.12554383	0.79059053	76.0695417	76.0695417	-64.57902623	-64.57902623	12.60883554	12.60883554	-36.28177139
0.8	-23.57466547	0.12753359	0.79428965	75.51951298	75.51951298	-63.83448808	-63.83448808	12.53817156	12.53817156	-35.81967655
0.81	-23.41390483	0.12967004	0.79860016	74.67371968	74.67371968	-63.04314145	-63.04314145	12.20409059	12.20409059	-35.67459401
0.82	-23.58740299	0.13149611	0.80204769	74.22950178	74.22950178	-62.29870618	-62.29870618	12.20360898	12.20360898	-35.0795917
0.83	-23.52394942	0.13349016	0.80607644	73.49905859	73.49905859	-61.49750401	-61.49750401	11.949679	11.949679	-34.78714767
0.84	-23.69661909	0.13527215	0.8094815	73.05458009	73.05458009	-60.73822768	-60.73822768	11.95241235	11.95241235	-34.17472788
0.85	-23.62788675	0.13724016	0.81346128	72.32012794	72.32012794	-59.92718476	-59.92718476	11.68247891	11.68247891	-33.87142027
0.86	-23.79642725	0.1390109	0.81680885	71.87437793	71.87437793	-59.16238676	-59.16238676	11.68258077	11.68258077	-33.24630245
0.87	-23.91322847	0.14082696	0.8202492	71.36587567	71.36587567	-58.37892814	-58.37892814	11.63659769	11.63659769	-32.67306233
